<svg width="60" height="60" viewBox="0 0 60 60" fill="none" xmlns="http://www.w3.org/2000/svg">
<path d="M37.9384 32.5335C37.8516 30.6213 37.0862 28.7828 35.7632 27.3717C34.2377 25.7423 32.1007 24.8086 29.8637 24.8086H29.7388C27.5031 24.8086 25.3674 25.7423 23.8405 27.373C22.5189 28.7841 21.7548 30.6187 21.6641 32.5308C23.8853 34.3417 26.7206 35.4306 29.8019 35.4306C32.8845 35.4293 35.7172 34.3431 37.9384 32.5335Z" fill="white"/>
<path d="M29.7997 24.1071C33.4072 24.1071 36.3318 21.1826 36.3318 17.5751C36.3318 13.9675 33.4072 11.043 29.7997 11.043C26.1921 11.043 23.2676 13.9675 23.2676 17.5751C23.2676 21.1826 26.1921 24.1071 29.7997 24.1071Z" fill="white"/>
<path d="M29.7992 44.4109C41.8639 44.4109 51.6825 34.5964 51.6825 22.529C51.6825 10.4643 41.8639 0.648438 29.7992 0.648438C17.7332 0.648438 7.91602 10.4643 7.91602 22.529C7.91602 34.5964 17.7332 44.4109 29.7992 44.4109ZM29.7992 5.77732C39.0352 5.77732 46.5509 13.2931 46.5509 22.529C46.5509 31.7663 39.0352 39.2807 29.7992 39.2807C20.562 39.2807 13.0475 31.7676 13.0475 22.529C13.0475 13.2918 20.562 5.77732 29.7992 5.77732Z" fill="white"/>
<path d="M31.1871 49.2068C31.0004 48.5953 30.4402 48.1758 29.7997 48.1758C29.1619 48.1758 28.599 48.594 28.4149 49.2068L25.9373 57.4577C25.8071 57.897 25.8899 58.3875 26.1635 58.7544C26.4357 59.12 26.8657 59.3528 27.3234 59.3528H32.276C32.7337 59.3528 33.1624 59.12 33.4386 58.7544C33.7095 58.3875 33.795 57.9049 33.6622 57.4669L31.1871 49.2068Z" fill="white"/>
<path d="M18.7374 45.5547C18.1654 45.2693 17.4763 45.3929 17.0396 45.8584L11.1454 52.142C10.8311 52.4773 10.6956 52.9376 10.7771 53.3874C10.856 53.8371 11.1441 54.2251 11.5544 54.4276L15.9876 56.6317C16.3979 56.8369 16.8792 56.8342 17.2869 56.6291C17.6946 56.4226 17.9786 56.0347 18.0562 55.5836L19.516 47.092C19.6278 46.4647 19.3069 45.8374 18.7374 45.5547Z" fill="white"/>
<path d="M8.17462 37.4653L0.719329 41.7894C0.3248 42.0195 0.0604651 42.4219 0.00917632 42.8769C-0.0421125 43.3307 0.12359 43.7817 0.456309 44.0947L4.06625 47.4824C4.40029 47.7954 4.86189 47.9335 5.31296 47.852C5.76273 47.7704 6.14805 47.4824 6.35321 47.0734L10.1933 39.363C10.4787 38.7896 10.3537 38.0992 9.88819 37.6626C9.42396 37.2233 8.72564 37.1444 8.17462 37.4653Z" fill="white"/>
<path d="M42.9627 46.0177C42.5234 45.5521 41.8356 45.4298 41.2636 45.7152C40.6876 45.998 40.3732 46.6239 40.4824 47.2539L41.9422 55.7455C42.0211 56.1952 42.3025 56.5845 42.7115 56.7883C43.1218 56.9961 43.6031 56.9987 44.0082 56.7936L48.444 54.5869C48.853 54.3843 49.1423 53.999 49.2212 53.5466C49.3041 53.0995 49.1673 52.6379 48.8556 52.3038L42.9627 46.0177Z" fill="white"/>
<path d="M59.9885 43.0347C59.9385 42.5823 59.6742 42.1798 59.281 41.9484L51.827 37.6257C51.2747 37.3048 50.5763 37.3837 50.1095 37.8203C49.6439 38.2595 49.5216 38.9487 49.807 39.5207L53.6471 47.2311C53.8522 47.6414 54.2349 47.9295 54.6873 48.0097C55.1371 48.0912 55.5987 47.9558 55.9314 47.6428L59.5414 44.2524C59.8754 43.9434 60.0424 43.491 59.9885 43.0347Z" fill="white"/>
</svg>
