<svg width="160" height="104" viewBox="0 0 160 104" fill="none" xmlns="http://www.w3.org/2000/svg">
<path d="M154.261 88.2109H152.107V8.18652C152.107 4.08618 148.771 0.75 144.67 0.75H15.3296C11.2292 0.75 7.89307 4.08618 7.89307 8.18652V63.5308C7.89307 64.8259 8.94287 65.8745 10.2368 65.8745C11.532 65.8745 12.5806 64.8259 12.5806 63.5308V8.18652C12.5806 6.67041 13.8135 5.4375 15.3296 5.4375H144.67C146.187 5.4375 147.419 6.67041 147.419 8.18652V88.2109H96.8677C94.9561 88.2109 93.3582 89.5818 93.0066 91.3921H66.9946C66.6418 89.5818 65.0439 88.2109 63.1323 88.2109H12.5806V73.7383C12.5806 72.4431 11.532 71.3945 10.2368 71.3945C8.94287 71.3945 7.89307 72.4431 7.89307 73.7383V88.2109H5.73853C2.57446 88.2109 0 90.7842 0 93.9495V97.592C0 100.756 2.57446 103.331 5.73853 103.331H154.261C157.426 103.331 160 100.756 160 97.592V93.9495C160 90.7842 157.426 88.2109 154.261 88.2109ZM155.312 97.592C155.312 98.1719 154.841 98.6431 154.261 98.6431H5.73853C5.15869 98.6431 4.6875 98.1719 4.6875 97.592V93.9495C4.6875 93.3696 5.15869 92.8972 5.73853 92.8972H62.4512C62.804 94.7075 64.4019 96.0784 66.3135 96.0784H93.6865C95.5981 96.0784 97.196 94.7075 97.5488 92.8972H154.261C154.84 92.8972 155.312 93.3696 155.312 93.9495V97.592Z" fill="#2271BF"/>
<path d="M75.3948 10.2188H23.0352C20.0188 10.2188 17.5664 12.6724 17.5664 15.6875V79.374C17.5664 82.3892 20.0188 84.8428 23.0352 84.8428H136.966C139.981 84.8428 142.435 82.3892 142.435 79.374V33.428C142.435 32.134 141.386 31.0842 140.091 31.0842C138.797 31.0842 137.747 32.134 137.747 33.428V79.374C137.747 79.8049 137.397 80.1553 136.966 80.1553H23.0352C22.6042 80.1553 22.2539 79.8049 22.2539 79.374V15.6875C22.2539 15.2578 22.6042 14.9062 23.0352 14.9062H75.3936C76.6887 14.9062 77.7373 13.8577 77.7373 12.5625C77.7373 11.2686 76.6887 10.2188 75.3948 10.2188Z" fill="#2271BF"/>
<path d="M140.091 25.5654C141.386 25.5654 142.435 24.5156 142.435 23.2217V15.6875C142.435 12.6724 139.981 10.2188 136.966 10.2188H85.6016C84.3064 10.2188 83.2578 11.2686 83.2578 12.5625C83.2578 13.8577 84.3064 14.9062 85.6016 14.9062H136.966C137.397 14.9062 137.748 15.2578 137.748 15.6875V23.2217C137.748 24.5156 138.797 25.5654 140.091 25.5654Z" fill="#2271BF"/>
<path d="M74.9166 41.9381C74.9252 40.7638 74.4821 39.5858 73.5873 38.691L57.5106 22.6144C55.7357 20.8395 52.8488 20.8395 51.0739 22.6144L34.9972 38.691C33.2223 40.4659 33.2223 43.3529 34.9972 45.1278L51.0739 61.2045C51.9613 62.0919 53.1271 62.535 54.2916 62.535C54.4491 62.535 54.6066 62.5253 54.7628 62.5094V69.2257C54.7628 71.7355 56.8038 73.7765 59.3136 73.7765H82.0504C84.5602 73.7765 86.6012 71.7355 86.6012 69.2257V46.4889C86.6012 43.9803 84.5602 41.9381 82.0504 41.9381H74.9166ZM54.2928 57.7938L38.4078 41.9088L54.2916 26.025L70.1766 41.9088L70.1473 41.9381H59.3136C56.8038 41.9381 54.7628 43.9803 54.7628 46.4889V57.3226L54.2928 57.7938ZM65.4598 46.6256L59.4503 52.6351V46.6256H65.4598ZM81.9137 69.089H59.4503V59.2648L72.0895 46.6256H81.9137V69.089Z" fill="#2271BF"/>
<path d="M94.7441 70.502C94.7441 71.7971 95.7927 72.8457 97.0879 72.8457H127.642C128.936 72.8457 129.986 71.7971 129.986 70.502C129.986 69.208 128.936 68.1582 127.642 68.1582H97.0879C95.7927 68.1582 94.7441 69.208 94.7441 70.502Z" fill="#2271BF"/>
<path d="M127.643 62.0469H116.1C114.806 62.0469 113.756 63.0967 113.756 64.3906C113.756 65.6858 114.806 66.7344 116.1 66.7344H127.643C128.938 66.7344 129.986 65.6858 129.986 64.3906C129.986 63.0967 128.937 62.0469 127.643 62.0469Z" fill="#2271BF"/>
<path d="M127.643 53.0977H116.1C114.806 53.0977 113.756 54.1462 113.756 55.4414C113.756 56.7354 114.806 57.7852 116.1 57.7852H127.643C128.938 57.7852 129.986 56.7354 129.986 55.4414C129.986 54.1462 128.937 53.0977 127.643 53.0977Z" fill="#2271BF"/>
<path d="M108.969 57.7852C110.264 57.7852 111.313 56.7354 111.313 55.4414C111.313 54.1462 110.264 53.0977 108.969 53.0977H107.498C106.204 53.0977 105.154 54.1462 105.154 55.4414C105.154 56.7354 106.204 57.7852 107.498 57.7852H108.969Z" fill="#2271BF"/>
<path d="M121.776 46.6267C126.197 46.6267 129.795 43.0293 129.795 38.6079C129.795 34.1853 126.197 30.5879 121.776 30.5879C117.353 30.5879 113.756 34.1853 113.756 38.6079C113.756 43.0293 117.353 46.6267 121.776 46.6267ZM121.776 35.2754C123.613 35.2754 125.107 36.7708 125.107 38.6079C125.107 40.4451 123.613 41.9392 121.776 41.9392C119.939 41.9392 118.443 40.4451 118.443 38.6079C118.443 36.7708 119.939 35.2754 121.776 35.2754Z" fill="#2271BF"/>
</svg>
