<svg width="160" height="148" viewBox="0 0 160 148" fill="none" xmlns="http://www.w3.org/2000/svg">
<path d="M96.2964 29.3267C81.2391 14.2693 56.7383 14.2681 41.6797 29.3267C26.6224 44.3841 26.6224 68.8848 41.6797 83.9434C49.209 91.4715 59.0992 95.2361 68.9881 95.2361C78.8782 95.2361 88.7671 91.4715 96.2964 83.9434C111.355 68.8848 111.355 44.3841 96.2964 29.3267ZM92.9822 80.628C79.7523 93.8579 58.2252 93.8579 44.9952 80.628C31.7652 67.398 31.7652 45.8709 44.9952 32.6409C51.6102 26.0259 60.2991 22.719 68.9893 22.719C77.6783 22.719 86.3672 26.0259 92.9822 32.6409C106.212 45.8709 106.212 67.398 92.9822 80.628Z" fill="#2271BF"/>
<path d="M158.473 128.586L147.637 117.75C147.66 117.545 147.675 117.34 147.675 117.132V94.249C147.675 92.955 146.625 91.9052 145.331 91.9052C144.036 91.9052 142.987 92.955 142.987 94.249V113.099L124.229 94.3405C122.267 92.3789 119.124 92.313 117.075 94.1318L106.833 83.8889C119.967 65.6736 118.347 40.0388 101.965 23.657C101.582 23.2737 101.191 22.9014 100.798 22.5327H142.987V84.0427C142.987 85.3366 144.036 86.3864 145.331 86.3864C146.625 86.3864 147.675 85.3366 147.675 84.0427V9.25634C147.675 4.46265 143.774 0.5625 138.981 0.5625H117.797C116.503 0.5625 115.453 1.6123 115.453 2.90625C115.453 4.20019 116.503 5.25 117.797 5.25H138.981C141.19 5.25 142.987 7.04687 142.987 9.25634V17.8452H94.8853C79.2712 7.41308 58.7048 7.41308 43.0908 17.8452H4.6875V9.25634C4.6875 7.04687 6.48438 5.25 8.69385 5.25H107.59C108.884 5.25 109.934 4.20019 109.934 2.90625C109.934 1.6123 108.884 0.5625 107.59 0.5625H8.69385C3.90015 0.5625 0 4.46265 0 9.25634V117.132C0 120.147 2.45361 122.601 5.46875 122.601H78.0603C79.3542 122.601 80.4041 121.551 80.4041 120.257C80.4041 118.962 79.3542 117.914 78.0603 117.914H5.46875C5.03784 117.914 4.6875 117.562 4.6875 117.132V22.5327H37.179C36.7859 22.9014 36.3953 23.2737 36.012 23.657C17.8284 41.8406 17.8284 71.4279 36.012 89.6115C45.1038 98.7021 57.0459 103.249 68.988 103.249C78.5645 103.249 88.1372 100.323 96.2439 94.4785L106.486 104.721C105.636 105.677 105.166 106.892 105.166 108.182C105.166 109.576 105.709 110.887 106.694 111.873L112.734 117.914H88.2666C86.9727 117.914 85.9229 118.963 85.9229 120.257C85.9229 121.551 86.9727 122.601 88.2666 122.601H117.422L140.94 146.119C141.926 147.105 143.237 147.649 144.631 147.649C146.027 147.649 147.338 147.105 148.324 146.119L158.473 135.969C160.509 133.933 160.509 130.621 158.473 128.586ZM39.3262 86.2961C22.97 69.9399 22.97 43.3274 39.3262 26.9712C47.5037 18.7937 58.2458 14.7043 68.988 14.7043C79.7302 14.7043 90.4724 18.7937 98.6511 26.9712C115.007 43.3274 115.007 69.9411 98.6511 86.2961C90.4724 94.4748 79.7314 98.5642 68.988 98.563C58.2471 98.5617 47.5024 94.4736 39.3262 86.2961ZM101.965 89.6115C102.631 88.9463 103.268 88.2639 103.884 87.5693L113.75 97.435L109.79 101.395L99.9243 91.5305C100.619 90.914 101.3 90.2756 101.965 89.6115ZM109.854 108.182C109.854 108.081 109.88 107.934 110.01 107.805L120.16 97.6547C120.288 97.5254 120.436 97.4985 120.537 97.4985C120.637 97.4985 120.785 97.5254 120.914 97.6547L150.275 127.015L139.37 137.918L110.01 108.558C109.88 108.43 109.854 108.282 109.854 108.182ZM155.159 132.655L145.009 142.805C144.88 142.933 144.733 142.961 144.633 142.961C144.531 142.961 144.385 142.933 144.255 142.805L142.684 141.234L153.589 130.329L155.159 131.9C155.366 132.108 155.366 132.446 155.159 132.655Z" fill="#2271BF"/>
<path d="M49.8691 61.5098C48.5752 61.5098 47.5254 62.573 47.5254 63.8669C47.5254 65.1609 48.5752 66.2107 49.8691 66.2107C51.1631 66.2107 52.2129 65.1609 52.2129 63.8669V63.8401C52.2129 62.5461 51.1631 61.5098 49.8691 61.5098Z" fill="#2271BF"/>
<path d="M49.8691 69.3281C48.5752 69.3281 47.5254 70.3914 47.5254 71.6853C47.5254 72.9792 48.5752 74.0291 49.8691 74.0291C51.1631 74.0291 52.2129 72.9792 52.2129 71.6853V71.6584C52.2129 70.3645 51.1631 69.3281 49.8691 69.3281Z" fill="#2271BF"/>
<path d="M56.5508 61.5098C55.2556 61.5098 54.207 62.573 54.207 63.8669C54.207 65.1609 55.2556 66.2107 56.5508 66.2107C57.8447 66.2107 58.8945 65.1609 58.8945 63.8669V63.8401C58.8945 62.5461 57.8447 61.5098 56.5508 61.5098Z" fill="#2271BF"/>
<path d="M56.5508 69.3281C55.2556 69.3281 54.207 70.3914 54.207 71.6853C54.207 72.9792 55.2556 74.0291 56.5508 74.0291C57.8447 74.0291 58.8945 72.9792 58.8945 71.6853V71.6584C58.8945 70.3645 57.8447 69.3281 56.5508 69.3281Z" fill="#2271BF"/>
<path d="M94.1521 54.7194C93.67 53.0556 92.3199 51.7861 90.6292 51.4064L79.909 48.9992L81.9219 39.2617C82.2539 37.6576 81.7486 36.0195 80.5706 34.8818C79.3926 33.7429 77.7398 33.2949 76.148 33.6806L51.0308 39.7707C49.3474 40.1784 48.0193 41.4711 47.5652 43.1435C47.1099 44.8159 47.603 46.603 48.8482 47.8066L61.7132 60.2419L65.3948 76.6396C65.7757 78.329 67.0452 79.6804 68.709 80.1625C69.1448 80.2895 69.5904 80.3505 70.0322 80.3505C71.2749 80.3505 72.4895 79.8622 73.3928 78.9589L92.9473 59.4045C94.1729 58.1789 94.6343 56.3845 94.1521 54.7194ZM52.1062 44.4362C52.0842 44.4167 52.0781 44.4094 52.0879 44.3727C52.0977 44.3349 52.1074 44.3325 52.1355 44.3263L77.2527 38.2363C77.2613 38.2338 77.2674 38.2326 77.2747 38.2326C77.2857 38.2326 77.2967 38.2375 77.3125 38.2521C77.3382 38.2778 77.3357 38.29 77.3308 38.3132L75.335 47.9726L65.4131 45.7448C63.8152 45.3859 62.1685 45.8632 61.01 47.0217C59.8516 48.1789 59.3755 49.8244 59.7344 51.4235L59.8443 51.9155L52.1062 44.4362ZM64.3071 50.3957C64.3023 50.3725 64.2998 50.3615 64.3255 50.3359C64.3499 50.3102 64.3621 50.3127 64.3853 50.3188L74.3853 52.5637L72.1001 63.622C72.094 63.6501 72.0916 63.6598 72.055 63.6708C72.0183 63.683 72.0122 63.6769 71.9903 63.6562L65.9795 57.8469L64.3071 50.3957ZM89.6331 56.0903L70.0786 75.6447C70.0579 75.6655 70.0518 75.6716 70.0152 75.6606C69.9773 75.6508 69.9761 75.641 69.9688 75.613L67.8496 66.1721L68.7334 67.0265C69.6319 67.8945 70.822 68.3608 72.0366 68.3608C72.5054 68.3608 72.9766 68.2924 73.438 68.1496C75.0933 67.6393 76.3396 66.2673 76.6912 64.5705L78.9605 53.5903L89.6026 55.9804C89.6306 55.9865 89.6404 55.9889 89.6502 56.0256C89.6612 56.0622 89.6551 56.0683 89.6331 56.0903Z" fill="#2271BF"/>
<path d="M16.4258 98.0996H17.7075C19.0027 98.0996 20.0513 97.0498 20.0513 95.7559C20.0513 94.4607 19.0027 93.4121 17.7075 93.4121H16.4258C15.1318 93.4121 14.082 94.4607 14.082 95.7559C14.082 97.0498 15.1318 98.0996 16.4258 98.0996Z" fill="#2271BF"/>
<path d="M31.2805 93.4121H23.291C21.9958 93.4121 20.9473 94.4607 20.9473 95.7559C20.9473 97.0498 21.9958 98.0996 23.291 98.0996H31.2805C32.5745 98.0996 33.6243 97.0498 33.6243 95.7559C33.6243 94.4607 32.5757 93.4121 31.2805 93.4121Z" fill="#2271BF"/>
<path d="M31.2805 99.6035H16.4258C15.1318 99.6035 14.082 100.652 14.082 101.947C14.082 103.241 15.1318 104.291 16.4258 104.291H31.2805C32.5745 104.291 33.6243 103.241 33.6243 101.947C33.6243 100.652 32.5757 99.6035 31.2805 99.6035Z" fill="#2271BF"/>
<path d="M31.2805 105.795H16.4258C15.1318 105.795 14.082 106.845 14.082 108.139C14.082 109.434 15.1318 110.482 16.4258 110.482H31.2805C32.5745 110.482 33.6243 109.434 33.6243 108.139C33.6243 106.845 32.5757 105.795 31.2805 105.795Z" fill="#2271BF"/>
<path d="M130.354 30.1367V78.4448C130.354 79.7388 131.403 80.7886 132.697 80.7886C133.991 80.7886 135.041 79.7388 135.041 78.4448V30.1367C135.041 28.8428 133.991 27.793 132.697 27.793C131.403 27.793 130.354 28.8428 130.354 30.1367Z" fill="#2271BF"/>
</svg>
