<svg width="24" height="24" viewBox="0 0 24 24" fill="none" xmlns="http://www.w3.org/2000/svg">
<path d="M10.8184 16.6084L10.503 19.4448C10.4874 19.5859 10.5327 19.7275 10.6275 19.8335C10.7222 19.9395 10.858 20 11 20H13.0001C13.1421 20 13.2779 19.9395 13.3726 19.8335C13.4674 19.7276 13.5128 19.586 13.4971 19.4448L13.1817 16.6084C13.6939 16.2359 14 15.6465 14 15C14 13.897 13.1031 13 12 13C10.897 13 10 13.897 10 15C10 15.6465 10.3062 16.2359 10.8184 16.6084ZM12 14C12.5513 14 13 14.4488 13 15C13 15.3833 12.7822 15.7266 12.4317 15.8965C12.2407 15.9893 12.1289 16.1914 12.1524 16.4019L12.4414 19H11.5586L11.8477 16.4019C11.8712 16.1914 11.7594 15.9893 11.5684 15.8965C11.2179 15.7266 11.0001 15.3833 11.0001 15C11 14.4488 11.4488 14 12 14Z" fill="#ABABAB"/>
<path d="M20.5 9H19V6.99998C19 3.14016 15.8599 0 12 0C8.14012 0 5.00002 3.14016 5.00002 6.99998V9H3.50002C3.22364 9 3 9.22364 3 9.50002V22C3 23.103 3.89695 24 5.00002 24H19C20.103 24 21 23.103 21 22V9.50002C21 9.22364 20.7764 9 20.5 9ZM6 6.99998C6 3.69141 8.69142 0.999984 12 0.999984C15.3086 0.999984 18 3.69141 18 6.99998V9H17V6.99998C17 4.24312 14.7569 1.99997 12 1.99997C9.24314 1.99997 6.99998 4.24317 6.99998 6.99998V9H6V6.99998ZM16 6.99998V9H8.00002V6.99998C8.00002 4.79442 9.79444 3 12 3C14.2056 3 16 4.79442 16 6.99998ZM20 22C20 22.5512 19.5513 23 19 23H5.00002C4.44877 23 4.00003 22.5512 4.00003 22V9.99998H20V22Z" fill="#ABABAB"/>
</svg>
