<svg width="24" height="24" viewBox="0 0 24 24" fill="none" xmlns="http://www.w3.org/2000/svg">
<path d="M12.4208 15.6918C12.9615 15.6918 13.4008 15.2504 13.4008 14.7092C13.4008 14.1691 12.9615 13.7308 12.4208 13.7308L7.98047 10.4648L11.4407 14.7722C11.4728 15.285 11.9 15.6918 12.4208 15.6918Z" fill="#00A9E5"/>
<path d="M16.8931 18.5859H7.10547V20.9086H16.8931V18.5859Z" fill="#00A9E5"/>
<path d="M20.4853 6.60456C18.2187 4.33805 15.2053 3.08984 12 3.08984C8.79469 3.08984 5.78118 4.33805 3.51466 6.60456C1.24815 8.87108 0 11.8845 0 15.0898C0 17.1595 0.521406 19.1485 1.50038 20.9086H3.74322L5.38365 19.9614L4.65919 18.7065L2.54985 19.9244C1.80464 18.4735 1.38366 16.83 1.38366 15.0898C1.38366 14.7819 1.39765 14.4771 1.42345 14.1757L3.93855 14.6192L4.19016 13.1922L1.64546 12.7435C2.10017 10.7359 3.12541 8.94241 4.54119 7.54303L6.26532 9.59782L7.37533 8.66646L5.63811 6.59617C7.23109 5.4 9.17017 4.64136 11.2755 4.49885V7.24699H12.7245V4.49885C14.8298 4.64147 16.7689 5.40005 18.3619 6.59623L16.6247 8.66646L17.7346 9.59782L19.4588 7.54297C20.8745 8.94241 21.8998 10.7359 22.3545 12.7435L19.8098 13.1923L20.0615 14.6191L22.5764 14.1756C22.6022 14.4771 22.6162 14.7818 22.6162 15.0897C22.6162 16.83 22.1954 18.4736 21.4501 19.9244L19.3407 18.7066L18.6163 19.9614L20.2567 20.9085H22.4996C23.4786 19.1484 24 17.1594 24 15.0897C24.0001 11.8845 22.7517 8.87097 20.4853 6.60456Z" fill="#00A9E5"/>
</svg>
