<svg width="24" height="24" viewBox="0 0 24 24" fill="none" xmlns="http://www.w3.org/2000/svg">
<g clip-path="url(#clip0)">
<path d="M14.9582 7.67824C16.4207 8.05324 18.0191 6.75012 18.5207 4.7673C19.1769 2.18918 17.6957 0.623554 16.7816 0.501679C15.2816 0.304804 13.7207 1.4298 13.2191 3.41262C12.7176 5.39543 13.491 7.30324 14.9582 7.67824Z" fill="white"/>
<path d="M9.05547 7.33125C10.5207 7.33125 11.7086 5.69009 11.7086 3.66562C11.7086 1.64116 10.5207 0 9.05547 0C7.59019 0 6.40234 1.64116 6.40234 3.66562C6.40234 5.69009 7.59019 7.33125 9.05547 7.33125Z" fill="white"/>
<path d="M20.2171 7.18166C18.6749 7.2051 17.4561 8.6676 17.4889 10.941C17.5217 13.2098 18.7967 14.2457 20.3389 14.2223C21.8764 14.1989 23.0999 13.1301 23.0671 10.8614C23.0202 7.89885 20.5874 7.17698 20.2171 7.18166Z" fill="white"/>
<path d="M6.40669 8.95861C6.26393 6.91826 4.92548 5.34978 3.41717 5.45532C1.90887 5.56085 0.801878 7.30043 0.944637 9.34078C1.0874 11.3811 2.42585 12.9496 3.93415 12.8441C5.44246 12.7385 6.54945 10.999 6.40669 8.95861Z" fill="white"/>
<path d="M18.8066 15.699C17.4895 14.5412 16.3691 13.5943 14.6207 11.1662C13.7535 9.96621 12.7551 9.81152 11.7145 9.81152C10.6691 9.81152 9.56758 10.1771 8.72383 11.3959C7.88008 12.61 6.91914 13.8006 5.05352 15.3521C3.19258 16.9084 2.40039 17.9818 2.40039 19.5662C2.40039 21.1506 3.30508 23.7803 5.87383 23.7803C8.44258 23.7803 9.68477 23.2131 11.7191 23.2131C13.7535 23.2131 15.0988 24.0006 17.6676 24.0006C20.2363 24.0006 21.3098 21.5678 21.3098 19.9881C21.3098 18.4037 20.8645 17.5084 18.8066 15.699Z" fill="white"/>
</g>
<defs>
<clipPath id="clip0">
<rect width="24" height="24" fill="white"/>
</clipPath>
</defs>
</svg>
