<svg width="24" height="24" viewBox="0 0 24 24" fill="none" xmlns="http://www.w3.org/2000/svg">
<path d="M23.4124 2.98976C23.0207 2.59814 22.55 2.40234 22.0001 2.40234H1.99999C1.45 2.40234 0.979306 2.59809 0.587417 2.98976C0.195747 3.38148 0 3.85217 0 4.4022V19.602C0 20.1522 0.195747 20.6229 0.587417 21.0146C0.979306 21.4062 1.45 21.6021 1.99999 21.6021H22.0001C22.55 21.6021 23.0207 21.4062 23.4124 21.0146C23.804 20.6229 24 20.1522 24 19.602V4.4022C24 3.85217 23.804 3.38148 23.4124 2.98976ZM22.3998 19.6023C22.3998 19.7108 22.3603 19.8043 22.2811 19.8837C22.202 19.9625 22.1082 20.002 22.0001 20.002H1.99999C1.89171 20.002 1.79793 19.9625 1.71878 19.8834C1.63966 19.804 1.60004 19.7105 1.60004 19.602V12.0022H22.3999V19.6023H22.3998ZM22.3998 7.20204H1.6V4.40203C1.6 4.29371 1.63949 4.20015 1.71873 4.12082C1.79793 4.04188 1.89171 4.00226 1.99994 4.00226H22C22.1082 4.00226 22.202 4.0417 22.2811 4.12082C22.3602 4.20015 22.3998 4.29371 22.3998 4.40203V7.20204H22.3998Z" fill="#3ECF8E"/>
<path d="M6.40113 16.8008H3.20117V18.4009H6.40113V16.8008Z" fill="#3ECF8E"/>
<path d="M12.7999 16.8008H8V18.4009H12.7999V16.8008Z" fill="#3ECF8E"/>
</svg>
