<svg width="18" height="24" viewBox="0 0 18 24" fill="none" xmlns="http://www.w3.org/2000/svg">
<path d="M17.5 9H16V6.99998C16 3.14016 12.8599 0 9 0C5.14012 0 2.00002 3.14016 2.00002 6.99998V9H0.500016C0.223641 9 0 9.22364 0 9.50002V22C0 23.103 0.896953 24 2.00002 24H16C17.103 24 18 23.103 18 22V9.50002C18 9.22364 17.7764 9 17.5 9ZM3 6.99998C3 3.69141 5.69142 0.999984 9 0.999984C12.3086 0.999984 15 3.69141 15 6.99998V9H14V6.99998C14 4.24312 11.7569 1.99997 9 1.99997C6.24314 1.99997 3.99998 4.24317 3.99998 6.99998V9H3V6.99998ZM13 6.99998V9H5.00002V6.99998C5.00002 4.79442 6.79444 3 9 3C11.2056 3 13 4.79442 13 6.99998ZM17 22C17 22.5512 16.5513 23 16 23H2.00002C1.44877 23 1.00003 22.5512 1.00003 22V9.99998H17V22Z" fill="#ABABAB"/>
</svg>
