<svg width="754" height="730" viewBox="0 0 754 730" fill="none" xmlns="http://www.w3.org/2000/svg">
<path opacity="0.3" d="M327.923 728.731L3.84804 541.771C-1.28268 538.789 -1.28268 531.426 3.84804 528.537L245.924 388.923C248.257 387.525 251.242 387.525 253.574 388.923L577.742 575.883C582.872 578.865 582.872 586.228 577.742 589.117L335.572 728.731C333.24 730.129 330.348 730.129 327.923 728.731Z" fill="#B8D0DC"/>
<path d="M327.923 681.383L3.84804 494.424C-1.28268 491.441 -1.28268 484.079 3.84804 481.189L245.924 341.576C248.257 340.178 251.242 340.178 253.574 341.576L577.742 528.442C582.872 531.424 582.872 538.787 577.742 541.676L335.572 681.383C333.24 682.781 330.348 682.781 327.923 681.383Z" fill="#ABCDED"/>
<path opacity="0.3" d="M322.046 323.496L634.832 503.931C641.083 507.566 651.904 507.1 659.18 502.906L731.01 461.525C738.193 457.331 739.033 451.087 732.782 447.545L419.995 267.11C413.745 263.475 402.924 263.941 395.648 268.135L323.818 309.516C316.635 313.617 315.889 319.954 322.046 323.496Z" fill="#B8D0DC"/>
<path d="M322.046 287.616L634.832 468.052C641.083 471.686 651.904 471.22 659.18 467.026L731.01 425.646C738.193 421.452 739.033 415.207 732.782 411.666L419.995 231.137C413.745 227.502 402.924 227.968 395.648 232.162L323.818 273.543C316.635 277.737 315.889 283.982 322.046 287.616Z" fill="#ABCDED"/>
<path d="M322.046 277.085L634.832 457.52C641.083 461.155 651.904 460.689 659.18 456.495L731.01 415.114C738.193 410.92 739.033 404.676 732.782 401.134L419.995 220.606C413.745 216.971 402.924 217.437 395.648 221.631L323.818 263.012C316.635 267.206 315.889 273.45 322.046 277.085Z" fill="white"/>
<path d="M406.654 171.021L345.832 135.978L406.281 101.121L467.01 136.164L406.654 171.021Z" fill="url(#paint0_linear)"/>
<path d="M406.469 300.102L345.646 265.059V136.07L406.469 171.114V300.102Z" fill="url(#paint1_linear)"/>
<path d="M406.469 300.102L467.198 265.059V136.07L406.469 171.114V300.102Z" fill="url(#paint2_linear)"/>
<path d="M487.627 139.798L426.805 104.755L487.254 69.8984L547.983 104.942L487.627 139.798Z" fill="url(#paint3_linear)"/>
<path d="M426.619 104.852V181.648V310.637L487.441 345.68V139.895L426.619 104.852Z" fill="url(#paint4_linear)"/>
<path d="M487.441 139.895L487.254 345.68L548.17 310.637V104.852L487.441 139.895Z" fill="url(#paint5_linear)"/>
<path d="M565.241 264.873L504.512 229.829L564.868 194.973L625.69 230.016L565.241 264.873Z" fill="url(#paint6_linear)"/>
<path d="M565.055 393.958L504.326 358.915V229.926L565.055 264.969V393.958Z" fill="url(#paint7_linear)"/>
<path d="M564.773 393.958L625.502 358.915V229.926L564.773 264.969V393.958Z" fill="url(#paint8_linear)"/>
<path d="M646.398 362.08L585.576 327.036L646.025 292.18L706.754 327.316L646.398 362.08Z" fill="url(#paint9_linear)"/>
<path d="M646.119 444.095L706.848 406.909V327.223L646.119 362.266V444.095Z" fill="url(#paint10_linear)"/>
<path d="M646.679 444.005V362.082L586.043 327.039V408.869L646.679 444.005Z" fill="url(#paint11_linear)"/>
<path d="M327.923 668.149L3.84804 481.189C-1.28268 478.207 -1.28268 470.844 3.84804 467.955L245.924 328.341C248.257 326.943 251.242 326.943 253.574 328.341L577.742 515.301C582.872 518.283 582.872 525.646 577.742 528.535L335.572 668.149C333.24 669.547 330.348 669.547 327.923 668.149Z" fill="white"/>
<path opacity="0.26" d="M542.107 515.581L230.626 335.984L217.846 343.347L23.625 455.374L335.106 634.97L506.285 536.271L542.107 515.581Z" fill="#3C2789"/>
<path d="M340.421 609.156L16.5332 422.29L218.497 305.883L542.292 492.656L340.421 609.156Z" fill="url(#paint12_linear)"/>
<path opacity="0.42" d="M428.764 527.42L431.562 525.836L135.38 355L66.3487 394.796C66.1621 394.796 66.0689 394.89 65.8823 394.89L28.1016 416.419L324.284 587.254L324.657 587.441L376.804 557.43L429.323 527.606L428.764 527.42Z" fill="#3C2789"/>
<path d="M228.292 385.755L166.07 349.873L199.933 330.395L262.155 366.277L228.292 385.755Z" fill="white"/>
<path d="M306.466 430.864L244.244 394.982L278.107 375.41L340.328 411.292L306.466 430.864Z" fill="white"/>
<path d="M384.546 475.88L322.324 439.998L356.187 420.52L418.409 456.402L384.546 475.88Z" fill="white"/>
<path d="M462.626 520.989L400.404 485.107L434.36 465.535L496.582 501.417L462.626 520.989Z" fill="white"/>
<path opacity="0.42" d="M217.752 305.508L180.531 327.037L504.419 513.81L541.64 492.374L217.752 305.508Z" fill="#3C2789"/>
<path d="M325.403 569.358L29.3145 398.523L136.127 336.824L432.309 507.66L325.403 569.358Z" fill="url(#paint13_linear)"/>
<path d="M66.7216 376.712C85.5654 372.518 107.767 373.73 125.119 379.788C131.928 382.211 138.365 385.753 139.298 390.32C140.231 394.98 135.007 399.267 132.861 403.74C127.731 414.365 141.63 426.388 160.287 428.718C181.93 431.421 203.012 422.94 225.214 422.38C237.155 422.101 248.909 424.058 260.103 426.481C273.35 429.464 287.716 434.217 290.234 442.325C293.593 453.323 273.163 461.711 267.846 472.429C262.062 484.079 278.667 497.593 299.656 498.338C315.142 498.898 332.306 493.772 345.366 498.711C348.351 499.83 350.683 501.414 353.295 502.812C363.277 508.031 376.803 510.548 390.237 511.2C403.67 511.852 417.103 510.641 430.349 509.336L325.403 568.984L28.8477 398.242L66.7216 376.712Z" fill="url(#paint14_linear)"/>
<path d="M67.2807 378.858C85.0983 375.037 104.315 375.596 121.76 381.095C125.771 382.307 129.875 383.798 133.327 386.221C135.099 387.433 137.152 389.204 137.152 391.534C137.245 393.77 135.286 396.007 134.073 397.685C130.715 402.438 128.196 407.005 130.249 412.876C134.726 425.552 151.611 430.398 163.458 431.33C182.582 432.728 201.052 426.39 219.896 424.899C237.994 423.501 258.237 426.577 275.121 433.287C280.718 435.524 290.793 440.277 287.342 447.92C284.916 453.418 278.666 457.426 274.282 461.34C266.259 468.424 260.196 477.464 268.032 487.25C277.174 498.714 293.685 501.23 307.491 500.484C317.846 499.925 328.574 497.595 338.835 499.366C343.873 500.298 347.977 502.814 352.455 505.051C356.373 507.102 360.571 508.593 364.862 509.711C386.038 515.49 408.427 513.626 429.976 511.575C432.774 511.296 432.774 506.915 429.976 507.195C409.826 509.152 389.023 510.923 369.153 506.263C364.862 505.238 360.664 504.026 356.653 502.162C352.922 500.484 349.47 498.061 345.645 496.57C337.716 493.588 328.947 494.147 320.738 494.799C304.693 496.197 284.916 498.714 272.603 485.572C261.315 473.55 278.853 464.043 286.409 456.308C312.529 429.746 246.576 420.798 232.117 420.146C212.713 419.307 194.243 425.458 175.026 426.763C165.604 427.416 155.809 426.763 147.04 422.756C141.443 420.239 133.607 415.206 133.793 408.123C133.887 400.854 143.682 396.566 140.976 388.644C138.738 381.841 129.502 378.858 123.439 376.901C105.061 370.936 84.7251 370.47 65.9747 374.478C63.2694 375.224 64.4822 379.511 67.2807 378.858Z" fill="#5BF4CE"/>
<path d="M137.152 386.499C133.887 388.363 128.663 388.363 125.398 386.499C122.133 384.635 122.133 381.559 125.398 379.695C128.663 377.831 133.887 377.831 137.152 379.695C140.324 381.559 140.324 384.635 137.152 386.499Z" fill="#5BF4CE"/>
<path d="M273.037 428.419C273.052 425.743 269.347 423.553 264.761 423.528C260.176 423.503 256.447 425.653 256.433 428.329C256.418 431.006 260.123 433.196 264.709 433.221C269.294 433.245 273.023 431.096 273.037 428.419Z" fill="#5BF4CE"/>
<path d="M169.148 431.608C165.883 433.472 160.659 433.472 157.394 431.608C154.129 429.744 154.129 426.668 157.394 424.804C160.659 422.94 165.883 422.94 169.148 424.804C172.413 426.668 172.413 429.744 169.148 431.608Z" fill="#5BF4CE"/>
<path d="M276.521 489.581C273.256 491.445 268.032 491.445 264.767 489.581C261.502 487.717 261.502 484.641 264.767 482.777C268.032 480.913 273.256 480.913 276.521 482.777C279.693 484.734 279.786 487.717 276.521 489.581Z" fill="#5BF4CE"/>
<path d="M358.85 501.353C358.864 498.676 355.159 496.486 350.574 496.461C345.988 496.437 342.26 498.586 342.245 501.263C342.231 503.94 345.936 506.129 350.521 506.154C355.106 506.179 358.835 504.029 358.85 501.353Z" fill="#5BF4CE"/>
<path opacity="0.51" d="M350.497 532.171C367.55 532.171 381.374 518.359 381.374 501.322C381.374 484.284 367.55 470.473 350.497 470.473C333.443 470.473 319.619 484.284 319.619 501.322C319.619 518.359 333.443 532.171 350.497 532.171Z" fill="url(#paint15_radial)"/>
<path opacity="0.51" d="M270.551 516.327C287.605 516.327 301.429 502.516 301.429 485.478C301.429 468.441 287.605 454.629 270.551 454.629C253.498 454.629 239.674 468.441 239.674 485.478C239.674 502.516 253.498 516.327 270.551 516.327Z" fill="url(#paint16_radial)"/>
<path opacity="0.51" d="M264.768 459.194C281.821 459.194 295.646 445.383 295.646 428.345C295.646 411.308 281.821 397.496 264.768 397.496C247.715 397.496 233.891 411.308 233.891 428.345C233.891 445.383 247.715 459.194 264.768 459.194Z" fill="url(#paint17_radial)"/>
<path opacity="0.51" d="M160.848 459.194C177.901 459.194 191.726 445.383 191.726 428.345C191.726 411.308 177.901 397.496 160.848 397.496C143.795 397.496 129.971 411.308 129.971 428.345C129.971 445.383 143.795 459.194 160.848 459.194Z" fill="url(#paint18_radial)"/>
<path opacity="0.51" d="M127.264 413.901C144.318 413.901 158.142 400.09 158.142 383.052C158.142 366.015 144.318 352.203 127.264 352.203C110.211 352.203 96.3867 366.015 96.3867 383.052C96.3867 400.09 110.211 413.901 127.264 413.901Z" fill="url(#paint19_radial)"/>
<path d="M506.937 482.404L183.049 295.631L220.363 274.102L544.158 460.874L506.937 482.404Z" fill="#3ECF8E"/>
<path d="M271.857 321.82L218.871 291.25L223.442 288.641L276.522 319.21L271.857 321.82Z" fill="white"/>
<path d="M231.184 312.035L207.023 298.055L211.594 295.445L235.755 309.425L231.184 312.035Z" fill="white"/>
<path d="M347.884 365.718L294.805 335.055L299.469 332.445L352.455 363.015L347.884 365.718Z" fill="white"/>
<path d="M307.211 355.84L282.957 341.953L287.621 339.25L311.782 353.23L307.211 355.84Z" fill="white"/>
<path d="M427.924 411.851L374.938 381.281L379.508 378.578L432.588 409.241L427.924 411.851Z" fill="white"/>
<path d="M387.251 402.066L363.09 388.086L367.661 385.477L391.822 399.363L387.251 402.066Z" fill="white"/>
<path d="M503.951 455.749L450.871 425.086L455.535 422.477L508.522 453.046L503.951 455.749Z" fill="white"/>
<path d="M463.186 445.871L439.025 431.984L443.69 429.281L467.851 443.261L463.186 445.871Z" fill="white"/>
<defs>
<linearGradient id="paint0_linear" x1="406.433" y1="177.707" x2="424.455" y2="109.604" gradientUnits="userSpaceOnUse">
<stop stop-color="#58F2E9"/>
<stop offset="0.248" stop-color="#40D4E4"/>
<stop offset="0.5563" stop-color="#28B5DF"/>
<stop offset="0.818" stop-color="#19A2DC"/>
<stop offset="1" stop-color="#149BDB"/>
</linearGradient>
<linearGradient id="paint1_linear" x1="376.063" y1="315.791" x2="459.665" y2="248.22" gradientUnits="userSpaceOnUse">
<stop stop-color="#58F2E9"/>
<stop offset="0.248" stop-color="#40D4E4"/>
<stop offset="0.5563" stop-color="#28B5DF"/>
<stop offset="0.818" stop-color="#19A2DC"/>
<stop offset="1" stop-color="#149BDB"/>
</linearGradient>
<linearGradient id="paint2_linear" x1="406.444" y1="218.112" x2="467.218" y2="218.112" gradientUnits="userSpaceOnUse">
<stop offset="0.0738915" stop-color="#2271BF"/>
<stop offset="1" stop-color="#154A7E"/>
</linearGradient>
<linearGradient id="paint3_linear" x1="487.405" y1="146.484" x2="505.427" y2="78.3817" gradientUnits="userSpaceOnUse">
<stop stop-color="#58F2E9"/>
<stop offset="0.248" stop-color="#40D4E4"/>
<stop offset="0.5563" stop-color="#28B5DF"/>
<stop offset="0.818" stop-color="#19A2DC"/>
<stop offset="1" stop-color="#149BDB"/>
</linearGradient>
<linearGradient id="paint4_linear" x1="457.036" y1="368.714" x2="563.106" y2="310.321" gradientUnits="userSpaceOnUse">
<stop stop-color="#58F2E9"/>
<stop offset="0.248" stop-color="#40D4E4"/>
<stop offset="0.5563" stop-color="#28B5DF"/>
<stop offset="0.818" stop-color="#19A2DC"/>
<stop offset="1" stop-color="#149BDB"/>
</linearGradient>
<linearGradient id="paint5_linear" x1="487.229" y1="225.304" x2="548.19" y2="225.304" gradientUnits="userSpaceOnUse">
<stop offset="0.0738915" stop-color="#2271BF"/>
<stop offset="1" stop-color="#154A7E"/>
</linearGradient>
<linearGradient id="paint6_linear" x1="565.112" y1="271.558" x2="583.134" y2="203.456" gradientUnits="userSpaceOnUse">
<stop stop-color="#58F2E9"/>
<stop offset="0.248" stop-color="#40D4E4"/>
<stop offset="0.5563" stop-color="#28B5DF"/>
<stop offset="0.818" stop-color="#19A2DC"/>
<stop offset="1" stop-color="#149BDB"/>
</linearGradient>
<linearGradient id="paint7_linear" x1="534.696" y1="409.647" x2="618.271" y2="342.201" gradientUnits="userSpaceOnUse">
<stop stop-color="#58F2E9"/>
<stop offset="0.248" stop-color="#40D4E4"/>
<stop offset="0.5563" stop-color="#28B5DF"/>
<stop offset="0.818" stop-color="#19A2DC"/>
<stop offset="1" stop-color="#149BDB"/>
</linearGradient>
<linearGradient id="paint8_linear" x1="564.749" y1="311.968" x2="625.523" y2="311.968" gradientUnits="userSpaceOnUse">
<stop offset="0.0738915" stop-color="#2271BF"/>
<stop offset="1" stop-color="#154A7E"/>
</linearGradient>
<linearGradient id="paint9_linear" x1="646.177" y1="368.765" x2="664.199" y2="300.663" gradientUnits="userSpaceOnUse">
<stop stop-color="#58F2E9"/>
<stop offset="0.248" stop-color="#40D4E4"/>
<stop offset="0.5563" stop-color="#28B5DF"/>
<stop offset="0.818" stop-color="#19A2DC"/>
<stop offset="1" stop-color="#149BDB"/>
</linearGradient>
<linearGradient id="paint10_linear" x1="646.095" y1="385.678" x2="706.869" y2="385.678" gradientUnits="userSpaceOnUse">
<stop offset="0.0738915" stop-color="#2271BF"/>
<stop offset="1" stop-color="#154A7E"/>
</linearGradient>
<linearGradient id="paint11_linear" x1="616.367" y1="455.192" x2="676.883" y2="386.808" gradientUnits="userSpaceOnUse">
<stop stop-color="#58F2E9"/>
<stop offset="0.248" stop-color="#40D4E4"/>
<stop offset="0.5563" stop-color="#28B5DF"/>
<stop offset="0.818" stop-color="#19A2DC"/>
<stop offset="1" stop-color="#149BDB"/>
</linearGradient>
<linearGradient id="paint12_linear" x1="220.804" y1="620.154" x2="228.308" y2="302.949" gradientUnits="userSpaceOnUse">
<stop stop-color="#14A4DB"/>
<stop offset="0.1958" stop-color="#1AABDC"/>
<stop offset="0.4773" stop-color="#2BBEE0"/>
<stop offset="0.809" stop-color="#46DDE5"/>
<stop offset="1" stop-color="#58F2E9"/>
</linearGradient>
<linearGradient id="paint13_linear" x1="230.85" y1="591.599" x2="290.819" y2="365.054" gradientUnits="userSpaceOnUse">
<stop stop-color="#58F2E9"/>
<stop offset="0.248" stop-color="#40D4E4"/>
<stop offset="0.5563" stop-color="#28B5DF"/>
<stop offset="0.818" stop-color="#19A2DC"/>
<stop offset="1" stop-color="#149BDB"/>
</linearGradient>
<linearGradient id="paint14_linear" x1="229.637" y1="587.61" x2="272.682" y2="394.164" gradientUnits="userSpaceOnUse">
<stop stop-color="#58F2E9"/>
<stop offset="0.248" stop-color="#40D4E4"/>
<stop offset="0.5563" stop-color="#28B5DF"/>
<stop offset="0.818" stop-color="#19A2DC"/>
<stop offset="1" stop-color="#149BDB"/>
</linearGradient>
<radialGradient id="paint15_radial" cx="0" cy="0" r="1" gradientUnits="userSpaceOnUse" gradientTransform="translate(350.512 501.361) scale(30.8476 30.8193)">
<stop offset="0.364641" stop-color="#3ECF8E"/>
<stop offset="0.657459" stop-color="#3ECF8E" stop-opacity="0"/>
</radialGradient>
<radialGradient id="paint16_radial" cx="0" cy="0" r="1" gradientUnits="userSpaceOnUse" gradientTransform="translate(270.567 485.518) scale(30.8476 30.8193)">
<stop offset="0.364641" stop-color="#3ECF8E"/>
<stop offset="0.657459" stop-color="#3ECF8E" stop-opacity="0"/>
</radialGradient>
<radialGradient id="paint17_radial" cx="0" cy="0" r="1" gradientUnits="userSpaceOnUse" gradientTransform="translate(264.783 428.385) scale(30.8476 30.8192)">
<stop offset="0.364641" stop-color="#3ECF8E"/>
<stop offset="0.657459" stop-color="#3ECF8E" stop-opacity="0"/>
</radialGradient>
<radialGradient id="paint18_radial" cx="0" cy="0" r="1" gradientUnits="userSpaceOnUse" gradientTransform="translate(160.863 428.385) scale(30.8475 30.8192)">
<stop offset="0.364641" stop-color="#3ECF8E"/>
<stop offset="0.657459" stop-color="#3ECF8E" stop-opacity="0"/>
</radialGradient>
<radialGradient id="paint19_radial" cx="0" cy="0" r="1" gradientUnits="userSpaceOnUse" gradientTransform="translate(127.28 383.092) scale(30.8476 30.8192)">
<stop offset="0.364641" stop-color="#3ECF8E"/>
<stop offset="0.657459" stop-color="#3ECF8E" stop-opacity="0"/>
</radialGradient>
</defs>
</svg>
