<svg width="200" height="200" viewBox="0 0 200 200" fill="none" xmlns="http://www.w3.org/2000/svg">
<path d="M0 0V66.4062H66.4062V0H0ZM50.7812 50.7812H15.625V15.625H50.7812V50.7812Z" fill="black"/>
<path d="M41.0156 25.3906H25.3906V41.0156H41.0156V25.3906Z" fill="black"/>
<path d="M133.594 0V66.4062H200V0H133.594ZM184.375 50.7812H149.219V15.625H184.375V50.7812Z" fill="black"/>
<path d="M174.609 25.3906H158.984V41.0156H174.609V25.3906Z" fill="black"/>
<path d="M0 133.594V200H66.4062V133.594H0ZM50.7812 184.375H15.625V149.219H50.7812V184.375Z" fill="black"/>
<path d="M41.0156 158.984H25.3906V174.609H41.0156V158.984Z" fill="black"/>
<path d="M31.25 76.9531H15.625V92.5781H31.25V76.9531Z" fill="black"/>
<path d="M46.875 108.203V92.5781H31.25V108.203H46.4844V123.828H62.1094V108.203H46.875Z" fill="black"/>
<path d="M123.958 33.334H108.333V48.959H123.958V33.334Z" fill="black"/>
<path d="M93.75 15.625H78.125V45.7031H93.75V15.625Z" fill="black"/>
<path d="M109.375 0H93.75V15.625H109.375V0Z" fill="black"/>
<path d="M93.75 45.7031V61.3281H78.125V76.9531H109.375V45.7031H93.75Z" fill="black"/>
<path d="M93.75 139.062V123.828H109.375V138.672H140.625V154.297H109.375V139.062H93.75Z" fill="black"/>
<path d="M184.375 92.1875V76.9531H155.859V92.5781H140.625V108.203H156.25V123.438H200V92.1875H184.375ZM184.375 107.812H156.25V92.5781H184.375V107.812Z" fill="black"/>
<path d="M200 138.672H184.375V169.922H200V138.672Z" fill="black"/>
<path d="M140.625 108.203H125V123.828H140.625V108.203Z" fill="black"/>
<path d="M156.25 154.297H140.625V169.922H156.25V154.297Z" fill="black"/>
<path d="M171.875 138.672H156.25V154.297H171.875V138.672Z" fill="black"/>
<path d="M156.25 169.922V200H171.875V185.547H184.375V169.922H156.25Z" fill="black"/>
<path d="M93.75 139.062H78.125V168.75H93.75V139.062Z" fill="black"/>
<path d="M125 184.375V168.75H93.75V200H109.375V184.375H124.609V200H140.234V184.375H125Z" fill="black"/>
<path d="M78.125 76.9531H46.875V92.5781H78.125V76.9531Z" fill="black"/>
<path d="M15.625 92.5781H0V123.828H15.625V92.5781Z" fill="black"/>
<path d="M107.039 112V100.1L102.727 108.752H100.263L95.9511 100.1V112H91.3591V92.12H96.3431L101.495 102.508L106.675 92.12H111.631V112H107.039Z" fill="black"/>
</svg>
