<svg width="160" height="130" viewBox="0 0 160 130" fill="none" xmlns="http://www.w3.org/2000/svg">
<path d="M152.871 0.3125H129.808C128.513 0.3125 127.465 1.3623 127.465 2.65625C127.465 3.95142 128.513 5 129.808 5H152.871C154.218 5 155.312 6.09497 155.312 7.44141V93.6389H4.6875V7.44141C4.6875 6.09497 5.78247 5 7.12891 5H119.602C120.897 5 121.946 3.95142 121.946 2.65625C121.946 1.36108 120.897 0.3125 119.602 0.3125H7.12891C3.19702 0.3125 0 3.51074 0 7.44141V108.085C0 111.136 2.48291 113.619 5.53467 113.619H62.334V124.977H52.6562C51.3611 124.977 50.3125 126.025 50.3125 127.321C50.3125 128.616 51.3611 129.664 52.6562 129.664H107.344C108.639 129.664 109.688 128.616 109.688 127.321C109.688 126.025 108.639 124.977 107.344 124.977H97.666V113.619H120.687C121.982 113.619 123.031 112.57 123.031 111.276C123.031 109.98 121.982 108.932 120.687 108.932H5.53467C5.06714 108.932 4.6875 108.551 4.6875 108.085V98.3264H155.312V108.085C155.312 108.551 154.933 108.932 154.465 108.932H130.894C129.6 108.932 128.55 109.98 128.55 111.276C128.55 112.57 129.6 113.619 130.894 113.619H154.465C157.517 113.619 160 111.136 160 108.085V7.44141C160 3.51074 156.803 0.3125 152.871 0.3125ZM92.9785 124.977H67.0215V113.618H92.9785V124.977Z" fill="#2271BF"/>
<path d="M14.4941 65.5901C13.199 65.5901 12.1504 66.6387 12.1504 67.9338V82.5591C12.1504 83.8542 13.199 84.9028 14.4941 84.9028H32.7449C34.04 84.9028 35.0886 83.8542 35.0886 82.5591V20.3594C35.0886 19.0642 34.04 18.0156 32.7449 18.0156H14.4941C13.199 18.0156 12.1504 19.0642 12.1504 20.3594V57.3857C12.1504 58.6797 13.199 59.7295 14.4941 59.7295C15.7881 59.7295 16.8379 58.6797 16.8379 57.3857V30.219H30.4011V80.2153H16.8379V67.9326C16.8379 66.6387 15.7881 65.5901 14.4941 65.5901ZM16.8379 25.5315V22.7031H30.4011V25.5315H16.8379Z" fill="#2271BF"/>
<path d="M129.275 43.4526H147.527C148.823 43.4526 149.871 42.4041 149.871 41.1089V20.3594C149.871 19.0642 148.823 18.0156 147.527 18.0156H129.275C127.981 18.0156 126.932 19.0642 126.932 20.3594V41.1089C126.932 42.4041 127.981 43.4526 129.275 43.4526ZM131.619 38.7651V30.219H145.184V38.7651H131.619ZM145.184 22.7031V25.5315H131.619V22.7031H145.184Z" fill="#2271BF"/>
<path d="M129.275 76.6792H147.527C148.823 76.6792 149.871 75.6306 149.871 74.3354V53.5859C149.871 52.2908 148.823 51.2422 147.527 51.2422H129.275C127.981 51.2422 126.932 52.2908 126.932 53.5859V74.3354C126.932 75.6306 127.981 76.6792 129.275 76.6792ZM131.619 71.9917V63.4456H145.184V71.9917H131.619ZM145.184 55.9297V58.7581H131.619V55.9297H145.184Z" fill="#2271BF"/>
<path d="M101.349 50.3755V30.8882C101.349 28.5518 99.4479 26.6523 97.1127 26.6523H77.6242C75.289 26.6523 73.3884 28.5518 73.3884 30.8882V36.6816C72.4094 36.7524 71.4499 37.1577 70.7028 37.9048L56.9223 51.6853C55.2707 53.3369 55.2707 56.0249 56.9223 57.6765L70.7028 71.4558C71.5292 72.2822 72.6132 72.6948 73.6984 72.6948C74.7824 72.6948 75.8676 72.2822 76.694 71.4558L90.4733 57.6765C91.3168 56.833 91.727 55.7197 91.7087 54.6125H97.1127C99.4479 54.6113 101.349 52.7119 101.349 50.3755ZM78.0759 45.9163L82.0834 49.9238H78.0759V45.9163ZM86.8405 54.6809L73.6984 67.8218L60.5563 54.6809L73.3884 41.8489V50.3755C73.3884 52.7119 75.289 54.6113 77.6242 54.6113H86.7722L86.8405 54.6809ZM96.6611 49.9238H88.7131L78.0759 39.2878V31.3386H96.6611V49.9238Z" fill="#2271BF"/>
<path d="M94.3534 70.2103C94.484 71.4114 95.4997 72.3001 96.6801 72.3001C96.7643 72.3001 96.851 72.2964 96.9364 72.2867C98.2243 72.1463 99.1532 70.9891 99.0128 69.7025L98.6808 66.6629L101.72 66.9949C103.009 67.139 104.163 66.2064 104.305 64.9197C104.445 63.6331 103.516 62.4759 102.228 62.3355L96.2895 61.6873C95.5827 61.6116 94.8795 61.857 94.3778 62.3599C93.8749 62.8616 93.6283 63.5648 93.7052 64.2715L94.3534 70.2103Z" fill="#2271BF"/>
<path d="M118.262 19.2817V16.1567C118.262 14.0339 116.535 12.3066 114.412 12.3066H111.287C109.432 12.3066 107.879 13.6262 107.518 15.3755H85.3313C84.9688 13.6262 83.4172 12.3066 81.5618 12.3066H78.4368C76.5813 12.3066 75.0286 13.6262 74.6672 15.3755H52.481C52.1184 13.6262 50.5669 12.3066 48.7114 12.3066H45.5864C43.4636 12.3066 41.7363 14.0339 41.7363 16.1567V19.2817C41.7363 21.1116 43.0205 22.6436 44.7344 23.033V45.3267C43.0205 45.7161 41.7363 47.248 41.7363 49.0779V52.2029C41.7363 54.0327 43.0205 55.5647 44.7344 55.9541V78.2478C43.0205 78.6372 41.7363 80.1704 41.7363 81.999V85.124C41.7363 87.2468 43.4636 88.9741 45.5864 88.9741H48.7114C50.5669 88.9741 52.1196 87.6545 52.481 85.9053H74.6672C75.0286 87.6545 76.5813 88.9741 78.4368 88.9741H81.5618C83.6846 88.9741 85.4106 87.2468 85.4106 85.124V81.999C85.4106 79.8762 83.6846 78.1501 81.5618 78.1501H78.4368C76.5813 78.1501 75.0286 79.4685 74.6672 81.2178H52.481C52.166 79.698 50.9514 78.5054 49.4207 78.2185V55.9846C51.2053 55.6501 52.5603 54.0828 52.5603 52.2029V49.0779C52.5603 47.198 51.2053 45.6318 49.4207 45.2974V23.0635C50.9514 22.7766 52.166 21.584 52.481 20.063H74.666C75.0286 21.8123 76.5813 23.1318 78.4355 23.1318H81.5605C83.416 23.1318 84.9688 21.8123 85.3313 20.063H107.516C107.831 21.584 109.046 22.7766 110.577 23.0635V45.2974C108.792 45.6318 107.437 47.198 107.437 49.0779V52.2029C107.437 54.3257 109.163 56.053 111.286 56.053H114.411C116.534 56.053 118.261 54.3257 118.261 52.2029V49.0779C118.261 47.248 116.977 45.7161 115.263 45.3267V23.033C116.978 22.6436 118.262 21.1116 118.262 19.2817ZM112.125 16.9941H113.575V18.4431H112.125V16.9941ZM46.4238 16.9941H47.874V18.4431H46.4238V16.9941ZM46.4238 49.9153H47.874V51.3643H46.4238V49.9153ZM47.874 84.2866H46.4238V82.8364H47.874V84.2866ZM79.2742 82.8364H80.7244V84.2866H79.2742V82.8364ZM80.7244 18.4431H79.2742V16.9941H80.7244V18.4431ZM113.575 51.3643H112.125V49.9153H113.575V51.3643Z" fill="#2271BF"/>
<path d="M100.716 85.9053H111.415C113.537 85.9053 115.265 84.178 115.265 82.0552V71.357C115.265 69.7945 114.332 68.3992 112.888 67.801C111.445 67.2029 109.798 67.5301 108.692 68.6348L97.9942 79.3343C96.8894 80.439 96.5623 82.0857 97.1604 83.5298C97.7586 84.9727 99.1538 85.9053 100.716 85.9053ZM110.577 73.3797V81.2178H102.74L110.577 73.3797Z" fill="#2271BF"/>
</svg>
